# xmcd
#
# Track frame offsets:
#	150
#	11525
#	26073
#	40051
#	57336
#	81247
#	95519
#	118674
#	133087
#	150388
#
# Disc length: 2218 seconds
#
# Revision: 0
# Processed by: cddbd v1.5.2PL0 Copyright (c) Steve Scherf et al.
# Submitted via: EasyCDDAExtractor 15.3.0.1
#
DISCID=7908a80a
DTITLE=Hubert Sumlin and Willie Dixon and Sunnyland Slim - Blues Anytime
DYEAR=1979
DGENRE=
TTITLE0=It's You Baby
TTITLE1=Love You Woman
TTITLE2=Everytime I Get To Drinking
TTITLE3=When I Feel Better
TTITLE4=Blues Anytime
TTITLE5=I Love
TTITLE6=Levee Camp Moan
TTITLE7=My Babe
TTITLE8=Hubert's Blues
TTITLE9=We Gonna Jump
EXTD=
EXTT0=
EXTT1=
EXTT2=
EXTT3=
EXTT4=
EXTT5=
EXTT6=
EXTT7=
EXTT8=
EXTT9=
PLAYORDER=
